<?xml version="1.0" encoding="UTF-8" standalone="no"?>
<svg
   id="Layer_1"
   data-name="Layer 1"
   viewBox="0 0 122.88 91.26"
   version="1.1"
   sodipodi:docname="back_end.svg"
   inkscape:version="1.1.1 (3bf5ae0d25, 2021-09-20)"
   xmlns:inkscape="http://www.inkscape.org/namespaces/inkscape"
   xmlns:sodipodi="http://sodipodi.sourceforge.net/DTD/sodipodi-0.dtd"
   xmlns="http://www.w3.org/2000/svg"
   xmlns:svg="http://www.w3.org/2000/svg"
   xmlns:rdf="http://www.w3.org/1999/02/22-rdf-syntax-ns#"
   xmlns:cc="http://creativecommons.org/ns#"
   xmlns:dc="http://purl.org/dc/elements/1.1/">
  <sodipodi:namedview
     id="namedview11"
     pagecolor="#505050"
     bordercolor="#ffffff"
     borderopacity="1"
     inkscape:pageshadow="0"
     inkscape:pageopacity="0"
     inkscape:pagecheckerboard="1"
     showgrid="false"
     inkscape:zoom="2.1525066"
     inkscape:cx="-147.03788"
     inkscape:cy="-6.2717579"
     inkscape:window-width="3362"
     inkscape:window-height="1179"
     inkscape:window-x="1084"
     inkscape:window-y="140"
     inkscape:window-maximized="0"
     inkscape:current-layer="Layer_1" />
  <defs
     id="defs4">
    <style
       id="style2">.cls-1{fill-rule:evenodd;}</style>
  </defs>
  <title
     id="title6">coding</title>
  <path
     class="cls-1"
     d="m 8.32,0 h 106.24 c 4.59045,0.01099513 8.309,3.7295529 8.32,8.32 v 74.62 c -0.0165,4.588176 -3.73182,8.303545 -8.32,8.32 H 8.32 C 3.7318241,91.243545 0.01645506,87.528176 0,82.94 V 8.32 C 0.01099513,3.7295529 3.7295529,0.01099513 8.32,0 Z m 32.86,73.22 c -27.453333,-48.813333 -13.726667,-24.406667 0,0 z M 118,23.29 H 5.29 v 60.46 c 0.00403,0.617516 0.2605796,1.206486 0.71,1.63 0.4315699,0.432779 1.0188268,0.674167 1.63,0.67 h 108 c 0.61117,0.0042 1.19843,-0.237221 1.63,-0.67 0.4347,-0.430283 0.67644,-1.018388 0.67,-1.63 V 23.29 Z M 106.64,9.35 c 3.66427,-0.00892 5.50716,4.418629 2.9196,7.012506 -2.58757,2.593878 -7.01959,0.761778 -7.0196,-2.902506 -1e-5,-2.265991 1.83402,-4.1044866 4.1,-4.11 z m -27.84,0 c 3.661874,0 5.495083,4.427039 2.906061,7.016061 C 79.117039,18.955083 74.69,17.121874 74.69,13.46 c 0,-2.26989 1.84011,-4.11 4.11,-4.11 z m 13.92,0 c 3.661874,0 5.495083,4.427039 2.906061,7.016061 C 93.037039,18.955083 88.61,17.121874 88.61,13.46 c 0,-2.26989 1.84011,-4.11 4.11,-4.11 z"
     id="path8"
     sodipodi:nodetypes="cccccccccccccccccccccssssssssssss"
     style="fill:#6b5c9f;fill-opacity:1" />
  <metadata
     id="metadata992">
    <rdf:RDF>
      <cc:Work
         rdf:about="">
        <dc:title>coding</dc:title>
      </cc:Work>
    </rdf:RDF>
  </metadata>
  <g
     id="g44"
     transform="matrix(0.05303958,0,0,0.05303958,36.071037,28.408207)"
     style="fill:#6b5c9f;fill-opacity:1">
    <g
       id="g12"
       style="fill:#6b5c9f;fill-opacity:1">
      <g
         id="g10"
         style="fill:#6b5c9f;fill-opacity:1">
        <g
           id="g8"
           style="fill:#6b5c9f;fill-opacity:1">
          <path
             d="m 978.6,395.5 c -3.8,-15.2 -15.2,-24.7 -30.4,-26.6 l -79.8,-11.4 c -3.8,-11.4 -1.9,-5.7 -7.6,-17.1 l 49.4,-64.6 c 9.5,-11.4 9.5,-28.5 1.9,-41.8 0,-1.9 -20.9,-34.2 -66.5,-79.8 C 800,108.6 767.7,87.7 765.8,87.7 752.5,80.1 735.4,80.1 724,89.6 L 659.4,139 c -11.4,-5.7 -5.7,-3.8 -17.1,-7.6 L 631,51.8 C 629.1,36.6 619.6,25.2 604.4,21.4 602.6,21.4 564.6,10 500,10 435.4,10 397.4,21.4 395.5,21.4 380.3,25.2 370.8,36.6 368.9,51.8 l -11.4,79.8 c -11.4,3.8 -5.7,1.9 -17.1,7.6 L 275.8,89.8 c -11.4,-9.5 -28.5,-9.5 -41.8,-1.9 -1.9,0 -34.2,20.9 -79.8,66.5 -45.6,45.6 -66.5,77.9 -66.5,79.8 -7.6,13.3 -7.6,30.4 1.9,41.8 l 49.4,64.6 c -5.7,11.4 -3.8,7.6 -7.6,19 L 51.8,369 c -15.2,1.9 -26.6,11.4 -30.4,26.6 0,1.9 -11.4,39.9 -11.4,104.5 0,64.6 11.4,102.6 11.4,104.5 3.8,15.2 15.2,24.7 30.4,26.6 l 79.8,11.4 c 3.8,11.4 1.9,5.7 7.6,17.1 l -49.4,64.6 c -9.5,11.4 -9.5,28.5 -1.9,41.8 0,1.9 20.9,34.2 66.5,79.8 45.6,45.6 77.9,66.5 79.8,66.5 13.3,7.6 30.4,7.6 41.8,-1.9 l 64.6,-49.4 c 11.4,5.7 7.6,3.8 19,7.6 l 9.5,79.8 c 1.9,15.2 11.4,26.6 26.6,30.4 1.9,0 39.9,11.4 104.5,11.4 64.6,0 102.6,-11.4 104.5,-11.4 15.2,-3.8 24.7,-15.2 26.6,-30.4 l 11.4,-79.8 c 11.4,-3.8 5.7,-1.9 17.1,-7.6 l 64.6,49.4 c 11.4,9.5 28.5,9.5 41.8,1.9 1.9,0 34.2,-20.9 79.8,-66.5 45.6,-45.6 66.5,-77.9 66.5,-79.8 7.6,-13.3 7.6,-30.4 -1.9,-41.8 l -49.4,-64.6 c 5.7,-11.4 3.8,-5.7 7.6,-17.1 l 79.8,-11.4 c 15.2,-1.9 26.6,-11.4 30.4,-26.6 0,-1.9 11.4,-39.9 11.4,-104.5 C 990,435.4 978.6,397.4 978.6,395.5 Z m -66.5,167.2 -76,9.5 c -13.3,1.9 -26.6,11.4 -30.4,24.7 -11.4,32.3 -7.6,22.8 -20.9,51.3 -5.7,13.3 -3.8,28.5 3.8,39.9 l 47.5,58.9 c -9.5,11.4 -22.8,28.5 -41.8,47.5 -19,19 -34.2,32.3 -45.6,41.8 L 688,788.7 c -11.4,-7.6 -26.6,-9.5 -39.9,-3.8 -32.3,15.2 -17.1,9.5 -51.3,20.9 -13.3,3.8 -22.8,17.1 -24.7,30.4 l -9.5,76 c -15.2,1.9 -36.1,3.8 -62.7,3.8 -26.6,0 -47.5,-1.9 -62.7,-3.8 l -9.5,-76 c -1.9,-13.3 -11.4,-26.6 -24.7,-30.4 -32.3,-11.4 -22.8,-7.6 -51.3,-20.9 -13.3,-5.7 -26.6,-3.8 -38,3.8 l -60.8,47.5 c -11.4,-9.5 -28.5,-22.8 -47.5,-41.8 -19,-19 -30.4,-34.2 -39.9,-45.6 L 211.1,688 c 7.6,-11.4 9.5,-26.6 3.8,-39.9 -15.2,-28.5 -9.5,-19 -20.9,-51.3 -3.8,-13.3 -17.1,-22.8 -30.4,-24.7 l -76,-9.5 c -1.9,-15.2 -3.8,-36.1 -3.8,-62.7 0,-26.6 1.9,-47.5 3.8,-62.7 l 76,-9.5 c 13.3,-1.9 26.6,-11.4 30.4,-24.7 3.8,-13.3 9.5,-24.7 9.5,-26.6 0,0 5.7,-13.3 11.4,-24.7 5.7,-13.3 3.8,-26.6 -3.8,-38 l -45.6,-60.8 c 9.5,-11.4 20.9,-28.5 39.9,-47.5 19,-19 36.1,-30.4 47.5,-39.9 l 60.8,45.6 c 11.4,7.6 24.7,9.5 38,3.8 28.5,-15.2 19,-9.5 51.3,-20.9 13.3,-3.8 22.8,-17.1 24.7,-30.4 l 9.5,-76 c 15.2,-1.9 36.1,-3.8 62.7,-3.8 26.6,0 47.5,1.9 62.7,3.8 l 9.5,76 c 1.9,13.3 11.4,26.6 24.7,30.4 32.3,11.4 22.8,7.6 51.3,20.9 13.3,5.7 28.5,3.8 39.9,-3.8 l 60.8,-45.6 c 11.4,9.5 26.6,20.9 45.6,39.9 19,19 32.3,36.1 41.8,47.5 l -47.5,60.8 c -7.6,11.4 -9.5,24.7 -3.8,38 15.2,32.3 11.4,17.1 22.8,51.3 3.8,13.3 15.2,22.8 28.5,24.7 l 76,9.5 c 1.9,15.2 3.8,36.1 3.8,62.7 -0.1,26.7 -2,47.6 -3.9,62.8 z"
             id="path4"
             style="fill:#6b5c9f;fill-opacity:1" />
          <path
             d="M 500,266.4 C 370.9,266.4 266.4,370.9 266.4,500 266.4,629.1 370.9,733.6 500,733.6 629.1,733.6 733.6,629.1 733.6,500 733.6,370.9 629.1,266.4 500,266.4 Z m 0,393.1 c -89.3,0 -159.5,-70.3 -159.5,-159.5 0,-89.3 70.3,-159.5 159.5,-159.5 89.3,0 159.5,70.3 159.5,159.5 0,89.3 -70.2,159.5 -159.5,159.5 z"
             id="path6"
             style="fill:#6b5c9f;fill-opacity:1" />
        </g>
      </g>
    </g>
    <g
       id="g14"
       style="fill:#6b5c9f;fill-opacity:1" />
    <g
       id="g16"
       style="fill:#6b5c9f;fill-opacity:1" />
    <g
       id="g18"
       style="fill:#6b5c9f;fill-opacity:1" />
    <g
       id="g20"
       style="fill:#6b5c9f;fill-opacity:1" />
    <g
       id="g22"
       style="fill:#6b5c9f;fill-opacity:1" />
    <g
       id="g24"
       style="fill:#6b5c9f;fill-opacity:1" />
    <g
       id="g26"
       style="fill:#6b5c9f;fill-opacity:1" />
    <g
       id="g28"
       style="fill:#6b5c9f;fill-opacity:1" />
    <g
       id="g30"
       style="fill:#6b5c9f;fill-opacity:1" />
    <g
       id="g32"
       style="fill:#6b5c9f;fill-opacity:1" />
    <g
       id="g34"
       style="fill:#6b5c9f;fill-opacity:1" />
    <g
       id="g36"
       style="fill:#6b5c9f;fill-opacity:1" />
    <g
       id="g38"
       style="fill:#6b5c9f;fill-opacity:1" />
    <g
       id="g40"
       style="fill:#6b5c9f;fill-opacity:1" />
    <g
       id="g42"
       style="fill:#6b5c9f;fill-opacity:1" />
  </g>
</svg>
