<?xml version="1.0" encoding="UTF-8" standalone="no"?>
<svg
   id="Layer_1"
   data-name="Layer 1"
   viewBox="0 0 122.88 91.26"
   version="1.1"
   sodipodi:docname="front_end.svg"
   inkscape:version="1.1.1 (3bf5ae0d25, 2021-09-20)"
   xmlns:inkscape="http://www.inkscape.org/namespaces/inkscape"
   xmlns:sodipodi="http://sodipodi.sourceforge.net/DTD/sodipodi-0.dtd"
   xmlns="http://www.w3.org/2000/svg"
   xmlns:svg="http://www.w3.org/2000/svg"
   xmlns:rdf="http://www.w3.org/1999/02/22-rdf-syntax-ns#"
   xmlns:cc="http://creativecommons.org/ns#"
   xmlns:dc="http://purl.org/dc/elements/1.1/">
  <sodipodi:namedview
     id="namedview11"
     pagecolor="#505050"
     bordercolor="#ffffff"
     borderopacity="1"
     inkscape:pageshadow="0"
     inkscape:pageopacity="0"
     inkscape:pagecheckerboard="1"
     showgrid="false"
     inkscape:zoom="8.6100262"
     inkscape:cx="61.439999"
     inkscape:cy="45.64446"
     inkscape:window-width="1023"
     inkscape:window-height="1370"
     inkscape:window-x="1983"
     inkscape:window-y="97"
     inkscape:window-maximized="0"
     inkscape:current-layer="Layer_1" />
  <defs
     id="defs4">
    <style
       id="style2">.cls-1{fill-rule:evenodd;}</style>
  </defs>
  <title
     id="title6">coding</title>
  <path
     class="cls-1"
     d="m 8.32,0 h 106.24 a 8.34,8.34 0 0 1 8.32,8.32 v 74.62 a 8.35,8.35 0 0 1 -8.32,8.32 H 8.32 A 8.35,8.35 0 0 1 0,82.94 V 8.32 A 8.34,8.34 0 0 1 8.32,0 Z M 88.8,54.44 a 2.3614032,2.3614032 0 0 1 4.6,1.07 l -5.12,21.93 a 2.3614032,2.3614032 0 0 1 -4.6,-1.07 z M 16.18,73.22 a 2.66,2.66 0 0 1 0,-5.32 h 25 a 2.66,2.66 0 1 1 0,5.32 z m 0,-16.61 a 2.66,2.66 0 0 1 0,-5.32 h 43.44 a 2.66,2.66 0 1 1 0,5.32 z m 0,-16.61 a 2.66,2.66 0 0 1 0,-5.32 H 85 A 2.66,2.66 0 0 1 85,40 Z m 64.6,32 a 2.36,2.36 0 0 1 -3.1,3.55 l -9,-7.85 a 2.35,2.35 0 0 1 -0.22,-3.32 1.67,1.67 0 0 1 0.23,-0.23 l 9,-7.84 a 2.3527431,2.3527431 0 0 1 3.1,3.54 l -6.93,6.08 z M 100,75.56 A 2.3602755,2.3602755 0 0 1 96.9,72 l 6.93,-6.07 -6.93,-6.07 a 2.3527431,2.3527431 0 1 1 3.1,-3.54 l 9,7.84 a 1.67,1.67 0 0 1 0.23,0.23 2.35,2.35 0 0 1 -0.22,3.32 l -9,7.85 z M 118,23.29 H 5.29 V 83.75 A 2.26,2.26 0 0 0 6,85.379999 2.28,2.28 0 0 0 7.63,86.05 h 108 A 2.28,2.28 0 0 0 117.26,85.379999 2.26,2.26 0 0 0 117.93,83.75 V 23.29 Z M 106.64,9.35 a 4.11,4.11 0 1 1 -4.1,4.11 4.11,4.11 0 0 1 4.1,-4.11 z m -27.84,0 a 4.11,4.11 0 1 1 -4.11,4.11 4.11,4.11 0 0 1 4.11,-4.11 z m 13.92,0 a 4.11,4.11 0 1 1 -4.11,4.11 4.11,4.11 0 0 1 4.11,-4.11 z"
     id="path8"
     style="fill:#6b5c9f;fill-opacity:1;stroke-width:1" />
  <metadata
     id="metadata828">
    <rdf:RDF>
      <cc:Work
         rdf:about="">
        <dc:title>coding</dc:title>
      </cc:Work>
    </rdf:RDF>
  </metadata>
</svg>
