<?xml version="1.0" encoding="UTF-8" standalone="no"?>
<svg
   id="Layer_1"
   data-name="Layer 1"
   viewBox="0 0 122.88 91.26"
   version="1.1"
   sodipodi:docname="front_end.svg"
   inkscape:version="1.1.1 (3bf5ae0d25, 2021-09-20)"
   xmlns:inkscape="http://www.inkscape.org/namespaces/inkscape"
   xmlns:sodipodi="http://sodipodi.sourceforge.net/DTD/sodipodi-0.dtd"
   xmlns="http://www.w3.org/2000/svg"
   xmlns:svg="http://www.w3.org/2000/svg"
   xmlns:rdf="http://www.w3.org/1999/02/22-rdf-syntax-ns#"
   xmlns:cc="http://creativecommons.org/ns#"
   xmlns:dc="http://purl.org/dc/elements/1.1/">
  <sodipodi:namedview
     id="namedview11"
     pagecolor="#505050"
     bordercolor="#ffffff"
     borderopacity="1"
     inkscape:pageshadow="0"
     inkscape:pageopacity="0"
     inkscape:pagecheckerboard="1"
     showgrid="false"
     inkscape:zoom="8.6100262"
     inkscape:cx="61.439999"
     inkscape:cy="45.64446"
     inkscape:window-width="2541"
     inkscape:window-height="1370"
     inkscape:window-x="2074"
     inkscape:window-y="64"
     inkscape:window-maximized="0"
     inkscape:current-layer="Layer_1" />
  <defs
     id="defs4">
    <style
       id="style2">.cls-1{fill-rule:evenodd;}</style>
  </defs>
  <title
     id="title6">coding</title>
  <path
     class="cls-1"
     d="M8.32,0H114.56a8.34,8.34,0,0,1,8.32,8.32V82.94a8.35,8.35,0,0,1-8.32,8.32H8.32A8.35,8.35,0,0,1,0,82.94V8.32A8.34,8.34,0,0,1,8.32,0ZM88.8,54.44a2.36,2.36,0,0,1,4.6,1.07L88.28,77.44a2.36,2.36,0,0,1-4.6-1.07L88.8,54.44ZM16.18,73.22a2.66,2.66,0,0,1,0-5.32h25a2.66,2.66,0,1,1,0,5.32Zm0-16.61a2.66,2.66,0,0,1,0-5.32H59.62a2.66,2.66,0,1,1,0,5.32Zm0-16.61a2.66,2.66,0,0,1,0-5.32H85A2.66,2.66,0,0,1,85,40Zm64.6,32a2.36,2.36,0,0,1-3.1,3.55l-9-7.85a2.35,2.35,0,0,1-.22-3.32,1.67,1.67,0,0,1,.23-.23l9-7.84a2.35,2.35,0,0,1,3.1,3.54l-6.93,6.08L80.78,72ZM100,75.56A2.36,2.36,0,0,1,96.9,72l6.93-6.07L96.9,59.86a2.35,2.35,0,1,1,3.1-3.54l9,7.84a1.67,1.67,0,0,1,.23.23,2.35,2.35,0,0,1-.22,3.32l-9,7.85Zm18-52.27H5.29V83.75A2.26,2.26,0,0,0,6,85.38a2.28,2.28,0,0,0,1.63.67h108a2.28,2.28,0,0,0,1.63-.67,2.26,2.26,0,0,0,.67-1.63V23.29ZM106.64,9.35a4.11,4.11,0,1,1-4.1,4.11,4.11,4.11,0,0,1,4.1-4.11Zm-27.84,0a4.11,4.11,0,1,1-4.11,4.11A4.11,4.11,0,0,1,78.8,9.35Zm13.92,0a4.11,4.11,0,1,1-4.11,4.11,4.11,4.11,0,0,1,4.11-4.11Z"
     id="path8"
     style="fill:#6b5c9f;fill-opacity:1" />
  <metadata
     id="metadata828">
    <rdf:RDF>
      <cc:Work
         rdf:about="">
        <dc:title>coding</dc:title>
      </cc:Work>
    </rdf:RDF>
  </metadata>
</svg>
