<?xml version="1.0" encoding="UTF-8" standalone="no"?>
<svg
   id="Layer_1"
   data-name="Layer 1"
   viewBox="0 0 48.000002 35"
   version="1.1"
   sodipodi:docname="nerd.svg"
   inkscape:version="1.1.1 (3bf5ae0d25, 2021-09-20)"
   width="48"
   height="35"
   xmlns:inkscape="http://www.inkscape.org/namespaces/inkscape"
   xmlns:sodipodi="http://sodipodi.sourceforge.net/DTD/sodipodi-0.dtd"
   xmlns="http://www.w3.org/2000/svg"
   xmlns:svg="http://www.w3.org/2000/svg"
   xmlns:rdf="http://www.w3.org/1999/02/22-rdf-syntax-ns#"
   xmlns:cc="http://creativecommons.org/ns#"
   xmlns:dc="http://purl.org/dc/elements/1.1/">
  <sodipodi:namedview
     id="namedview11"
     pagecolor="#505050"
     bordercolor="#ffffff"
     borderopacity="1"
     inkscape:pageshadow="0"
     inkscape:pageopacity="0"
     inkscape:pagecheckerboard="1"
     showgrid="false"
     inkscape:zoom="8.0322267"
     inkscape:cx="54.654832"
     inkscape:cy="46.500181"
     inkscape:window-width="2129"
     inkscape:window-height="1195"
     inkscape:window-x="1627"
     inkscape:window-y="112"
     inkscape:window-maximized="0"
     inkscape:current-layer="Layer_1"
     height="122.88px"
     fit-margin-top="0"
     fit-margin-left="0"
     fit-margin-right="0"
     fit-margin-bottom="0" />
  <defs
     id="defs4">
    <style
       id="style2">.cls-1{fill-rule:evenodd;}</style>
  </defs>
  <title
     id="title6">software-engineer</title>
  <path
     class="cls-1"
     d="m 20.172676,41.997632 -3.508778,1.100405 3.508778,1.115905 v 2.580526 l -4.641241,-2.196935 c -2.032864,-0.960917 -2.051427,-2.010952 0,-2.979618 l 4.641241,-2.200813 z M 17.420422,29.862176 c 3.378822,3.16948 11.032229,2.611526 13.858746,0 a 26.404025,22.042982 0 0 1 -1.958605,-2.208561 l -0.389865,-0.472709 a 8.1221728,6.7806673 0 0 1 -4.701576,1.1624 7.8901107,6.586934 0 0 1 -5.142495,-1.549866 c -0.385225,0.960917 -0.928248,2.282178 -1.494481,2.91375 a 0.83542349,0.69744007 0 0 1 -0.171724,0.139488 z m 13.153277,5.618268 H 3.8215826 a 1.8564966,1.5498669 0 0 0 -1.731183,1.805595 L 3.728758,47.863877 h -4.17711758 c 0,-5.649264 -2.39952212,-12.577166 4.68301258,-15.886132 2.6362254,-1.22827 9.431001,-1.642859 12.392116,-3.266346 a 25.099834,20.954199 0 0 0 1.257775,-2.743264 c 0.0325,-0.08524 -0.02319,0.05424 0.02784,-0.07363 a 25.990955,21.698136 0 0 1 -2.831153,-3.266347 l -2.441292,-3.227597 c -0.895761,-1.11203 -1.359885,-2.131067 -1.392373,-2.964122 a 2.7847452,2.3248003 0 0 1 0.264551,-1.073282 2.3531096,1.9644562 0 0 1 0.840064,-0.813681 3.053937,2.549531 0 0 1 0.589437,-0.251851 62.076607,51.823671 0 0 1 -0.116023,-5.8120014 9.5980878,8.0128115 0 0 1 0.301681,-1.321261 C 14.032315,4.5140915 16.766007,2.5767578 19.903487,1.6700857 21.425815,1.2322484 20.836376,0.18608815 22.386551,0.25195749 26.034568,0.4185683 31.669035,2.3791499 33.81793,4.4598459 36.844019,7.3735958 36.064291,10.961537 35.962185,14.53398 v 0 a 1.7775956,1.4839975 0 0 1 1.276342,1.096529 c 0.19493,0.643197 0,1.549867 -0.672984,2.785887 v 0 c 0,0 0,0.04262 -0.04178,0.06588 l -2.784743,3.824296 c -1.072128,1.476248 -2.16282,2.952497 -3.615527,4.091649 l -0.07427,0.05424 0.464125,0.542454 c 0.464124,0.592824 1.030355,1.267017 1.54089,1.793972 3.026093,1.549866 9.676992,1.991578 12.280728,3.200473 6.497738,3.029991 4.283865,10.511971 4.641241,15.886135 H 44.840863 L 46.479229,37.297652 A 1.8564966,1.5498669 0 0 0 44.748052,35.492056 H 30.57371 Z M 14.329354,15.250806 a 2.4366518,2.0342002 0 0 0 -1.225288,0.267351 1.0210731,0.85242673 0 0 0 -0.352734,0.34097 1.4991212,1.2515176 0 0 0 -0.111388,0.54633 c 0.0232,0.619946 0.41307,1.429751 1.164952,2.363547 v 0 0 l 2.441295,3.243096 c 0.9793,1.298014 2.009655,2.623149 3.281355,3.595691 a 6.7065942,5.598894 0 0 0 4.715503,1.592489 6.9061675,5.7655046 0 0 0 4.956846,-1.64286 c 1.318114,-1.030662 2.353109,-2.437166 3.378824,-3.847544 L 35.326334,17.9282 c 0.515177,-0.976416 0.700828,-1.631234 0.584795,-2.010952 -0.06961,-0.228606 -0.371299,-0.340971 -0.886477,-0.364219 q -0.167085,0 -0.334169,0 a 3.7129932,3.0997335 0 0 0 -0.385224,0 0.81221728,0.67806673 0 0 1 -0.213497,0 3.7547646,3.1346058 0 0 1 -0.75188,-0.03487 L 34.26813,12.030954 C 27.278417,12.949252 22.047741,8.6135018 14.65888,11.163032 l 0.533745,4.118772 a 4.1771176,3.4872004 0 0 1 -0.844706,-0.03099 z m 13.724153,26.735202 3.508776,1.100406 -3.508776,1.115903 v 2.580529 l 4.64124,-2.196937 c 2.032864,-0.960918 2.046787,-2.010951 0,-2.979618 l -4.64124,-2.200812 z m -4.005394,5.536899 h -2.320619 l 2.868287,-9.322448 h 2.32062 z"
     id="path8"
     style="fill:#6b5c9f;fill-opacity:1;stroke-width:0.424067" />
  <metadata
     id="metadata8">
    <rdf:RDF>
      <cc:Work
         rdf:about="">
        <dc:title>software-engineer</dc:title>
      </cc:Work>
    </rdf:RDF>
  </metadata>
</svg>
