<?xml version="1.0" encoding="UTF-8" standalone="no"?>
<!-- Generator: Adobe Illustrator 19.0.0, SVG Export Plug-In . SVG Version: 6.00 Build 0)  -->

<svg
   version="1.1"
   id="Layer_1"
   x="0px"
   y="0px"
   viewBox="0 0 403.001 403.00002"
   xml:space="preserve"
   sodipodi:docname="planet_grey.svg"
   inkscape:version="1.1.1 (3bf5ae0d25, 2021-09-20)"
   width="403.00098"
   height="403"
   xmlns:inkscape="http://www.inkscape.org/namespaces/inkscape"
   xmlns:sodipodi="http://sodipodi.sourceforge.net/DTD/sodipodi-0.dtd"
   xmlns="http://www.w3.org/2000/svg"
   xmlns:svg="http://www.w3.org/2000/svg"><defs
   id="defs89" /><sodipodi:namedview
   id="namedview87"
   pagecolor="#ffffff"
   bordercolor="#666666"
   borderopacity="1.0"
   inkscape:pageshadow="2"
   inkscape:pageopacity="0.0"
   inkscape:pagecheckerboard="0"
   showgrid="false"
   inkscape:zoom="1.7050749"
   inkscape:cx="56.302512"
   inkscape:cy="241.92486"
   inkscape:window-width="2141"
   inkscape:window-height="1081"
   inkscape:window-x="1441"
   inkscape:window-y="132"
   inkscape:window-maximized="0"
   inkscape:current-layer="Layer_1"
   width="512.00098px" />
<g
   id="g6"
   transform="translate(2.3459378,-106.74018)"
   style="fill:#ffffff;fill-opacity:1">
	<path
   style="fill:#ffffff;fill-opacity:1"
   d="m 72.025,444.002 c 33.673,43.617 91.325,57.206 128,55.999 66.239,-2.178 108.689,-23.502 136.001,-55.999 z"
   id="path2" />
	<path
   style="fill:#ffffff;fill-opacity:1"
   d="m 80.025,156.002 c 16.026,-23.352 66.981,-40 120,-40 53.019,0 102.84,17.885 119.329,40 z"
   id="path4" />
</g>
<g
   id="g12"
   transform="translate(2.3459378,-106.74018)"
   style="fill:#808080;fill-opacity:1">
	<path
   style="fill:#808080;fill-opacity:1"
   d="M 352.001,188.001 H 48.026 c 0,0 17.053,-18.7 32,-32 11.259,-10.019 23.975,-16 23.975,-16 h 192 c 0,0 17.671,9.287 32.026,24 10.295,10.554 23.974,24 23.974,24 z"
   id="path8" />
	<path
   style="fill:#808080;fill-opacity:1"
   d="M 368,412.001 H 34.769 c 0,0 15.257,18 21.256,24 5.999,6 31.975,24 31.975,24 h 231.354 c 0,0 17.671,-18 24.672,-24 6.999,-5.999 23.974,-24 23.974,-24 z"
   id="path10" />
</g>
<path
   style="fill:#808080;fill-opacity:1"
   d="m 394.34594,238.88082 -382.916002,1.819 c 0,0 -1.083,-14.658 -1.083,-47.439 0,-28.988 8.025,-40.001 8.025,-40.001 H 386.37194 c 0,0 8.284,18.836 8,48.001 -0.129,19.428 -0.026,37.62 -0.026,37.62 z"
   id="path14" />
<g
   id="g20"
   transform="translate(2.3459378,-106.74018)"
   style="fill:#f2f2f2;fill-opacity:1">
	<path
   style="fill:#f2f2f2;fill-opacity:1"
   d="M 384,260.002 H 16 c 0,0 0.098,-21.704 16.026,-48.001 10.655,-17.59 23.975,-32 23.975,-32 h 288 c 0,0 13.913,9.314 24.026,32 C 385.16,250.44 384,260.002 384,260.002 Z"
   id="path16" />
	<path
   style="fill:#f2f2f2;fill-opacity:1"
   d="m 8,340.001 h 384 c 0,0 1.544,16.666 -7.975,40.001 -9.785,23.986 -24.025,40 -24.025,40 H 40 c 0,0 -19.974,-30 -23.975,-40 C 12.025,370.001 8,340.001 8,340.001 Z"
   id="path18" />
</g>



<g
   id="g38"
   transform="translate(2.3459378,-106.74018)">
	<rect
   x="280.00201"
   y="252.004"
   style="fill:#ffffff"
   width="47.997002"
   height="16"
   id="rect34" />
	<rect
   x="95.995003"
   y="332.00299"
   style="fill:#ffffff"
   width="47.997002"
   height="16"
   id="rect36" />
</g>
<rect
   x="66.349937"
   y="225.2628"
   style="fill:#1d1d1b"
   width="16"
   height="16"
   id="rect40" />
<g
   id="g48"
   transform="translate(2.3459378,-106.74018)">
	<rect
   x="200.00301"
   y="412.00201"
   style="fill:#ffffff"
   width="71.996002"
   height="16"
   id="rect42" />
	<rect
   x="112.001"
   y="211.99899"
   style="fill:#ffffff"
   width="56"
   height="16"
   id="rect44" />
	<rect
   x="159.998"
   y="172.005"
   style="fill:#ffffff"
   width="32"
   height="16"
   id="rect46" />
</g>
<g
   id="g54"
   transform="translate(2.3459378,-106.74018)">
	<path
   style="fill:#1d1d1b"
   d="m 360,427.869 c 25.105,-33.426 40,-74.94 40,-119.867 0,-110.28 -89.72,-200 -200,-200 -110.28,0 -200,89.72 -200,200 0,65.293 31.454,123.374 80,159.898 v 0.1 h 0.132 c 33.426,25.105 74.94,40 119.867,40 65.293,0 123.373,-31.454 159.898,-80 H 360 Z m -160,64.132 c -32.99,0 -63.974,-8.734 -90.776,-24 H 184 v -16 H 85.595 C 66.392,436.713 50.3,417.677 38.446,396.002 H 184 v -16 H 30.678 C 21.234,357.876 16,333.54 16,308.003 c 0,-13.734 1.525,-27.117 4.391,-40 h 243.608 v -16 H 24.724 c 7.62,-23.793 19.951,-45.498 35.905,-64 H 128 v -16 H 76.194 c 32.71,-29.804 76.173,-48 123.806,-48 18.673,0 36.7,2.804 53.695,8 h -37.698 v 16 h 74.78 c 11.897,6.777 22.972,14.837 33.029,24 H 240 v 16 h 99.37 c 27.798,32.24 44.629,74.191 44.629,120 0,8.133 -0.537,16.143 -1.564,24 H 160 v 16 h 219.609 c -5.184,23.294 -14.795,44.937 -27.904,64 h -55.703 v 16 h 43.371 C 305.603,467.167 255.648,492.001 200,492.001 Z"
   id="path50" />
	<rect
   x="343.995"
   y="252.004"
   style="fill:#1d1d1b"
   width="16"
   height="16"
   id="rect52" />
</g>
<g
   id="g56">
</g>
<g
   id="g58">
</g>
<g
   id="g60">
</g>
<g
   id="g62">
</g>
<g
   id="g64">
</g>
<g
   id="g66">
</g>
<g
   id="g68">
</g>
<g
   id="g70">
</g>
<g
   id="g72">
</g>
<g
   id="g74">
</g>
<g
   id="g76">
</g>
<g
   id="g78">
</g>
<g
   id="g80">
</g>
<g
   id="g82">
</g>
<g
   id="g84">
</g>
</svg>
